<svg xmlns="http://www.w3.org/2000/svg" viewBox="0 0 96 96" role="img" aria-label="Peluditos — Aldea Pucela">
  <rect width="96" height="96" rx="20" fill="#f5f1fb"/>
  <!-- huella grande -->
  <g transform="translate(40 60) rotate(-12) scale(1.45)" fill="#6b4895">
    <ellipse cx="-13" cy="-14" rx="4.6" ry="6.6" transform="rotate(-20 -13 -14)"/>
    <ellipse cx="-4.5" cy="-18.5" rx="4.8" ry="7" transform="rotate(-7 -4.5 -18.5)"/>
    <ellipse cx="4.5" cy="-18.5" rx="4.8" ry="7" transform="rotate(7 4.5 -18.5)"/>
    <ellipse cx="13" cy="-14" rx="4.6" ry="6.6" transform="rotate(20 13 -14)"/>
    <path d="M0,-7 C6.5,-7 12,-2.5 12.5,4 C13,10.5 8,15.5 0,15.5 C-8,15.5 -13,10.5 -12.5,4 C-12,-2.5 -6.5,-7 0,-7 Z"/>
  </g>
  <!-- huella pequeña -->
  <g transform="translate(70 27) rotate(14) scale(0.8)" fill="#c2aee4">
    <ellipse cx="-13" cy="-14" rx="4.6" ry="6.6" transform="rotate(-20 -13 -14)"/>
    <ellipse cx="-4.5" cy="-18.5" rx="4.8" ry="7" transform="rotate(-7 -4.5 -18.5)"/>
    <ellipse cx="4.5" cy="-18.5" rx="4.8" ry="7" transform="rotate(7 4.5 -18.5)"/>
    <ellipse cx="13" cy="-14" rx="4.6" ry="6.6" transform="rotate(20 13 -14)"/>
    <path d="M0,-7 C6.5,-7 12,-2.5 12.5,4 C13,10.5 8,15.5 0,15.5 C-8,15.5 -13,10.5 -12.5,4 C-12,-2.5 -6.5,-7 0,-7 Z"/>
  </g>
</svg>
